<?xml version="1.0" encoding="iso-8859-1"?>
<!-- Generator: Adobe Illustrator 19.0.0, SVG Export Plug-In . SVG Version: 6.00 Build 0)  -->
<svg xmlns="http://www.w3.org/2000/svg" xmlns:xlink="http://www.w3.org/1999/xlink" version="1.1" id="Layer_1" x="0px" y="0px" viewBox="0 0 512 512" style="enable-background:new 0 0 512 512;" xml:space="preserve" width="512" height="512">
<g id="XMLID_634_">
	<g id="XMLID_635_">
		<path id="XMLID_636_" style="fill:#EB5163;" d="M258.308,143.11c0,31.225-25.311,56.536-56.536,56.536    c-27.856,0-51.015-20.15-55.671-46.667c-0.567-3.204-0.865-6.5-0.865-9.869c0-31.225,25.311-56.536,56.536-56.536    c13.248,0,25.435,4.553,35.067,12.177C249.912,109.114,258.308,125.133,258.308,143.11z"/>
		<path id="XMLID_637_" style="fill:#D63249;" d="M258.308,143.11c0,31.225-25.311,56.536-56.536,56.536    c-27.856,0-51.015-20.15-55.671-46.667h83.877c-2.256-19.604,0.144-38.055,6.861-54.229    C249.912,109.114,258.308,125.133,258.308,143.11z"/>
		<g id="XMLID_638_">
			<path id="XMLID_1155_" style="fill:#00DF97;" d="M242.421,152.982c0.618,4.924,1.566,9.869,2.843,14.814     c0.917,3.564,3.729,6.366,7.294,7.283c33.759,8.664,67.58,2.339,90.203-20.284c0.597-0.597,1.185-1.205,1.751-1.813     c21.18-22.592,26.97-55.506,18.533-88.389c-0.917-3.565-3.729-6.377-7.294-7.294c-33.769-8.674-67.59-2.339-90.213,20.284     C246.233,96.879,238.785,124.354,242.421,152.982z"/>
			<path id="XMLID_1154_" style="fill:#00B579;" d="M242.421,152.982c0.618,4.924,1.566,9.869,2.843,14.814     c0.917,3.564,3.729,6.366,7.294,7.283c33.759,8.664,67.58,2.339,90.203-20.284c0.597-0.597,1.185-1.205,1.751-1.813H242.421z"/>
			<path id="XMLID_639_" style="fill:#009765;" d="M341.444,115.074c-0.467-4.242-4.285-7.307-8.525-6.835     c-3.392,0.373-6.77,0.444-10.117,0.224l12.09-12.089c1.473-1.473,1.473-6.366-1.546-9.385c-3.018-3.018-7.912-3.018-10.93,0     l-10.543,10.545c-0.22-3.347-0.149-6.725,0.224-10.117c0.466-4.241-2.594-8.058-6.836-8.525     c-4.233-0.466-8.058,2.594-8.525,6.836c-0.94,8.551-0.37,17.034,1.658,25.286l-8.289,8.29c-0.221-3.348-0.15-6.726,0.223-10.12     c0.466-4.242-2.594-8.058-6.836-8.525c-4.24-0.466-8.058,2.595-8.525,6.836c-0.941,8.553-0.37,17.037,1.658,25.289     l-32.072,32.077c0.216,0.979,0.453,1.957,0.711,2.936c0.917,3.564,3.729,6.367,7.294,7.283c0.968,0.247,1.947,0.484,4.461-0.845     l30.523-30.519c5.649,1.388,11.405,2.095,17.219,2.095c2.683,0,5.378-0.148,8.079-0.446c4.241-0.467,7.302-4.284,6.835-8.525     c-0.467-4.242-4.287-7.305-8.525-6.835c-3.394,0.373-6.772,0.445-10.12,0.224l8.282-8.281c5.649,1.388,11.405,2.095,17.218,2.095     c2.683-0.001,5.378-0.148,8.078-0.446C338.85,123.132,341.91,119.315,341.444,115.074z"/>
		</g>
	</g>
	<rect id="XMLID_640_" x="49.964" y="215.119" style="fill:#F16E79;" width="412.072" height="171.092"/>
	<path id="XMLID_641_" style="fill:#EB5163;" d="M462.036,215.119v25.662h-71.525c-8.839,0-16.04,7.191-16.04,16.04v57.35   c0,22.685-18.451,41.135-41.135,41.135c-22.674,0-41.125-18.451-41.125-41.135v-57.35c0-8.849-7.201-16.04-16.05-16.04   c-8.839,0-16.04,7.191-16.04,16.04v23.086c0,21.582-17.565,39.147-39.147,39.147s-39.147-17.565-39.147-39.147v-23.086   c0-8.849-7.201-16.04-16.04-16.04H49.964v-25.662H462.036z"/>
	<rect id="XMLID_642_" x="49.964" y="215.119" style="fill:#A86552;" width="412.072" height="59.555"/>
	<path id="XMLID_643_" style="fill:#915040;" d="M462.036,215.119v25.662h-71.525c-8.839,0-16.04,7.191-16.04,16.04v17.853h-82.26   v-17.853c0-8.849-7.201-16.04-16.05-16.04c-8.839,0-16.04,7.191-16.04,16.04v17.853h-78.294v-17.853   c0-8.849-7.201-16.04-16.04-16.04H49.964v-25.662H462.036z"/>
	<g id="XMLID_644_">
		<path id="XMLID_645_" style="fill:#EFA66F;" d="M469.415,419.063v39.845c0,6.145-4.988,11.133-11.133,11.133H53.719    c-6.145,0-11.133-4.988-11.133-11.133v-39.845H469.415z"/>
		<rect id="XMLID_646_" x="42.585" y="419.063" style="fill:#E88F52;" width="426.83" height="23.403"/>
		<g id="XMLID_647_">
			<path id="XMLID_1144_" style="fill:#F4BC8E;" d="M25.844,430.068h460.312c14.273,0,25.844-11.571,25.844-25.844V383.38     c0-4.282-3.471-7.753-7.753-7.753H7.753c-4.282,0-7.753,3.471-7.753,7.753l0,20.845C0,418.497,11.571,430.068,25.844,430.068z"/>
		</g>
	</g>
	<path id="XMLID_648_" style="fill:#FBDBB7;" d="M19.573,198.214L19.573,198.214c0,16.679,13.521,30.2,30.2,30.2h116.01   c15.688,0,28.406,12.718,28.406,28.406v23.082c0,14.793,11.992,26.785,26.785,26.785h0c14.793,0,26.785-11.992,26.785-26.785   V256.82c0-15.688,12.718-28.406,28.406-28.406h0c15.688,0,28.406,12.718,28.406,28.406v57.355c0,15.889,12.88,28.769,28.769,28.769   h0c15.889,0,28.769-12.88,28.769-28.769V256.82c0-15.688,12.718-28.406,28.406-28.406h71.712c16.679,0,30.2-13.521,30.2-30.2v0   c0-16.679-13.521-30.2-30.2-30.2H49.773C33.094,168.015,19.573,181.536,19.573,198.214z"/>
	<g id="XMLID_649_">
		<path id="XMLID_650_" style="fill:#915040;" d="M188.352,118.828c-4.261,0-7.717-3.45-7.726-7.708    c-0.003-0.423-0.528-37.523-28.71-54.853c-3.635-2.235-4.77-6.993-2.534-10.629c2.235-3.634,6.992-4.77,10.629-2.534    c35.658,21.927,36.068,66.127,36.068,67.997C196.078,115.369,192.619,118.828,188.352,118.828z"/>
	</g>
	<g id="XMLID_651_">
		<path id="XMLID_652_" style="fill:#D63249;" d="M88.488,314.413h-0.107c-4.267,0-7.726-3.459-7.726-7.726    c0-4.267,3.459-7.726,7.726-7.726h0.107c4.267,0,7.726,3.459,7.726,7.726C96.214,310.954,92.755,314.413,88.488,314.413z"/>
	</g>
	<g id="XMLID_653_">
		<path id="XMLID_654_" style="fill:#D63249;" d="M111.411,332.875h-0.107c-4.267,0-7.726-3.459-7.726-7.726    c0-4.267,3.459-7.726,7.726-7.726h0.107c4.267,0,7.726,3.459,7.726,7.726C119.138,329.416,115.679,332.875,111.411,332.875z"/>
	</g>
	<g id="XMLID_655_">
		<path id="XMLID_656_" style="fill:#D63249;" d="M412.694,309.725h-0.107c-4.267,0-7.726-3.459-7.726-7.726    s3.459-7.726,7.726-7.726h0.107c4.267,0,7.726,3.459,7.726,7.726S416.961,309.725,412.694,309.725z"/>
	</g>
</g>















</svg>
