<?xml version="1.0" encoding="iso-8859-1"?>
<!-- Generator: Adobe Illustrator 19.0.0, SVG Export Plug-In . SVG Version: 6.00 Build 0)  -->
<svg xmlns="http://www.w3.org/2000/svg" xmlns:xlink="http://www.w3.org/1999/xlink" version="1.1" id="Layer_1" x="0px" y="0px" viewBox="0 0 512 512" style="enable-background:new 0 0 512 512;" xml:space="preserve" width="512" height="512">
<g id="XMLID_826_">
	<g id="XMLID_827_">
		<path id="XMLID_1157_" style="fill:#EFA66F;" d="M324.707,512H187.293c-5.605,0-10.149-4.544-10.149-10.149v-27.997h157.712    v27.997C334.856,507.456,330.312,512,324.707,512z"/>
		<g id="XMLID_828_">
			<path id="XMLID_829_" style="fill:#82F4BB;" d="M374.13,118.424v42.848H137.869v-42.848c0-5.013,4.07-9.083,9.083-9.083h218.095     C370.061,109.341,374.13,113.411,374.13,118.424z"/>
			<rect id="XMLID_830_" x="137.869" y="132.815" style="fill:#00DF97;" width="236.261" height="28.457"/>
			<g id="XMLID_831_">
				<path id="XMLID_832_" style="fill:#F4BC8E;" d="M387.76,185.416l-2.994,23.687l-8.961,71l-23.058,182.676l-1.756,13.893      c-0.639,5.074-4.953,8.88-10.068,8.88H171.076c-5.115,0-9.428-3.806-10.068-8.88l-1.756-13.893l-23.058-182.676l-8.961-71      l-2.994-23.687H387.76z"/>
				<polygon id="XMLID_833_" style="fill:#EFA66F;" points="375.805,280.103 352.747,462.779 159.253,462.779 136.195,280.103           "/>
				<polygon id="XMLID_834_" style="fill:#EFA66F;" points="387.76,185.416 384.766,209.103 127.234,209.103 124.24,185.416     "/>
			</g>
			<path id="XMLID_1150_" style="fill:#82F4BB;" d="M392.306,196.926H119.694c-5.019,0-9.087-4.068-9.087-9.087v-33.755     c0-5.019,4.068-9.087,9.087-9.087h272.612c5.019,0,9.087,4.068,9.087,9.087v33.755     C401.393,192.858,397.324,196.926,392.306,196.926z"/>
			<g id="XMLID_835_">
				<g id="XMLID_836_">
					<path id="XMLID_837_" style="fill:#77DFFF;" d="M191.714,90.078c-1.948,0-3.896-0.743-5.382-2.229       c-8.241-8.241-8.241-21.651,0-29.892l36.6-36.599c1.117-1.117,1.732-2.602,1.732-4.182s-0.615-3.065-1.732-4.182       c-2.973-2.972-2.973-7.792,0-10.764c2.972-2.972,7.792-2.972,10.764,0c8.241,8.241,8.241,21.651,0,29.892l-36.6,36.599       c-1.117,1.117-1.732,2.602-1.732,4.182c0,1.58,0.615,3.065,1.732,4.182c2.973,2.972,2.973,7.792,0,10.764       C195.609,89.334,193.662,90.078,191.714,90.078z"/>
				</g>
				<g id="XMLID_838_">
					<path id="XMLID_839_" style="fill:#77DFFF;" d="M237.7,90.078c-1.948,0-3.896-0.743-5.382-2.229       c-8.241-8.241-8.241-21.651,0-29.892l36.6-36.599c1.117-1.117,1.732-2.602,1.732-4.182s-0.615-3.065-1.732-4.182       c-2.973-2.972-2.973-7.792,0-10.764c2.972-2.972,7.792-2.972,10.764,0c8.241,8.241,8.241,21.651,0,29.892l-36.6,36.599       c-1.117,1.117-1.732,2.602-1.732,4.182c0,1.58,0.615,3.065,1.732,4.182c2.973,2.972,2.973,7.792,0,10.764       C241.596,89.334,239.648,90.078,237.7,90.078z"/>
				</g>
				<g id="XMLID_840_">
					<path id="XMLID_841_" style="fill:#77DFFF;" d="M283.687,90.078c-1.948,0-3.896-0.743-5.382-2.229       c-8.241-8.241-8.241-21.651,0-29.892l36.6-36.599c1.117-1.117,1.732-2.602,1.732-4.182s-0.615-3.065-1.732-4.182       c-2.973-2.972-2.973-7.792,0-10.764c2.972-2.972,7.792-2.972,10.764,0c8.241,8.241,8.241,21.651,0,29.892l-36.6,36.599       c-1.117,1.117-1.732,2.602-1.732,4.182c0,1.58,0.615,3.065,1.732,4.182c2.973,2.972,2.973,7.792,0,10.764       C287.583,89.334,285.635,90.078,283.687,90.078z"/>
				</g>
			</g>
		</g>
	</g>
	<path id="XMLID_842_" style="fill:#FFEDDC;" d="M370.626,441.723l17.422-138.022c0.765-6.061-3.959-11.42-10.069-11.42H134.02   c-6.109,0-10.834,5.358-10.069,11.42l17.422,138.022c0.64,5.073,4.955,8.878,10.069,8.878h209.115   C365.671,450.601,369.986,446.796,370.626,441.723z"/>
	<g id="XMLID_843_">
		<circle id="XMLID_1139_" style="fill:#82F4BB;" cx="256" cy="321.749" r="58.247"/>
		
			<ellipse id="XMLID_1138_" transform="matrix(-0.7071 -0.7071 0.7071 -0.7071 208.6438 732.3668)" style="fill:#BE7560;" cx="256" cy="322.972" rx="20.911" ry="28.931"/>
		<g id="XMLID_844_">
			<path id="XMLID_845_" style="fill:#915040;" d="M280.438,309.291l-38.129,38.129c-2.568-0.771-4.871-2.091-6.769-3.988     s-3.217-4.212-3.978-6.779l38.118-38.118c2.568,0.761,4.882,2.081,6.779,3.978S279.677,306.723,280.438,309.291z"/>
		</g>
	</g>
	<g id="XMLID_846_">
		<path id="XMLID_847_" style="fill:#915040;" d="M265.769,420.542h-19.537c-4.204,0-7.611-3.408-7.611-7.612    s3.408-7.612,7.611-7.612h19.537c4.204,0,7.612,3.408,7.612,7.612S269.972,420.542,265.769,420.542z"/>
	</g>
</g>















</svg>
