<?xml version="1.0" encoding="iso-8859-1"?>
<!-- Generator: Adobe Illustrator 19.0.0, SVG Export Plug-In . SVG Version: 6.00 Build 0)  -->
<svg xmlns="http://www.w3.org/2000/svg" xmlns:xlink="http://www.w3.org/1999/xlink" version="1.1" id="Layer_1" x="0px" y="0px" viewBox="0 0 512 512" style="enable-background:new 0 0 512 512;" xml:space="preserve" width="512" height="512">
<g id="XMLID_600_">
	<path id="XMLID_601_" style="fill:#BE7560;" d="M503.729,191.191c-1.174-4.471-6.614-6.057-10.096-3.018   c-15.906,13.897-38.405,19.543-60.101,12.949c-20.593-6.253-35.644-22.036-41.825-41.042c-0.824-2.534-3.194-4.234-5.862-4.224   c-6.14,0.021-12.393-0.855-18.574-2.73c-33.45-10.158-52.333-45.503-42.176-78.953c1.216-4.018,2.802-7.819,4.708-11.383   c1.422-2.658,0.742-5.913-1.607-7.798c-13.094-10.549-20.521-26.97-19.501-44.04c0.185-3.132-1.937-5.934-5.017-6.511   C288.266,1.535,272.371,0.01,256.125,0C165.953-0.041,86.361,47.007,40.693,117.812c-4.461,6.913-8.592,14.041-12.362,21.387   C10.231,174.255,0.001,213.979,0.001,256c0,141.382,114.618,256,256,256c101.761,0,189.409-58.823,230.699-144.576   c1.792-3.709,3.492-7.458,5.099-11.26c12.754-30.112,19.913-63.222,20.192-98.053C512.176,234.974,509.292,212.537,503.729,191.191   z M160.895,256c0-31.287,15.113-59.05,38.446-76.378c3.904-2.895,8.035-5.501,12.362-7.788   c13.228-6.985,28.299-10.941,44.298-10.941c52.519,0,95.106,42.588,95.106,95.106c0,47.934-35.469,87.586-81.59,94.148   c-4.419,0.628-8.932,0.958-13.516,0.958c-8.035,0-15.834-0.999-23.282-2.874C191.45,337.848,160.895,300.483,160.895,256z"/>
	<path id="XMLID_605_" style="fill:#A86552;" d="M511.991,258.112c-0.278,34.83-7.438,67.94-20.192,98.053   c-1.607,3.801-3.307,7.551-5.099,11.26c-22.499-9.859-37.025-32.07-37.025-56.639v-51.942c0-5.079-1.988-9.869-5.583-13.464   c-3.606-3.606-8.396-5.594-13.475-5.594c-10.508,0-19.058,8.55-19.058,19.058v4.698c0,28.351-11.033,54.991-31.08,75.038   c-20.037,20.037-46.678,31.07-75.028,31.07c-14.103,0-27.784-2.72-40.682-8.087l-32.049-13.331   c7.448,1.875,15.247,2.874,23.282,2.874c4.584,0,9.097-0.33,13.516-0.958c46.121-6.562,81.59-46.214,81.59-94.148   c0-52.519-42.588-95.106-95.106-95.106c-15.999,0-31.07,3.956-44.298,10.941c-4.327,2.287-8.458,4.893-12.362,7.788V151.54   c0-9.354-3.647-18.152-10.261-24.776c-6.614-6.603-15.411-10.25-24.766-10.25c-19.316,0-35.026,15.71-35.026,35.026v18.451   c0,13.485-5.254,26.167-14.783,35.706c-9.55,9.529-22.221,14.773-35.696,14.773c-27.836,0-50.479-22.643-50.479-50.479v-30.792   c3.77-7.345,7.901-14.474,12.362-21.387C86.361,47.007,165.953-0.041,256.125,0c16.246,0.01,32.142,1.535,47.553,4.44   c3.08,0.577,5.202,3.379,5.017,6.511c-1.02,17.07,6.408,33.491,19.501,44.04c2.349,1.885,3.029,5.141,1.607,7.798   c-1.906,3.564-3.492,7.366-4.708,11.383c-10.158,33.45,8.726,68.795,42.176,78.953c6.181,1.875,12.434,2.751,18.574,2.73   c2.668-0.01,5.037,1.69,5.862,4.224c6.181,19.007,21.232,34.789,41.825,41.042c21.696,6.593,44.195,0.948,60.101-12.949   c3.482-3.039,8.922-1.453,10.096,3.018C509.292,212.537,512.176,234.974,511.991,258.112z"/>
	<path id="XMLID_606_" style="fill:#F4BC8E;" d="M511.991,258.112c-0.247,30.988-5.944,60.616-16.184,87.988   c-1.267,3.389-2.596,6.748-4.007,10.065c-17.513-7.613-29.762-25.064-29.762-45.379v-51.942c0-8.674-3.523-16.524-9.21-22.211   c-5.687-5.687-13.537-9.21-22.211-9.21c-17.348,0-31.421,14.072-31.421,31.421v4.698c0,25.888-10.487,49.325-27.454,66.292   c-16.967,16.967-40.404,27.454-66.292,27.454c-12.733,0-24.869-2.534-35.933-7.139c46.121-6.562,81.59-46.214,81.59-94.148   c0-52.519-42.588-95.106-95.106-95.106c-15.999,0-31.07,3.956-44.298,10.941V151.54c0-13.083-5.305-24.93-13.877-33.512   c-8.581-8.571-20.429-13.877-33.512-13.877c-26.177,0-47.388,21.211-47.388,47.388v18.451c0,10.528-4.265,20.058-11.167,26.96   c-6.902,6.892-16.421,11.157-26.95,11.157c-21.047,0-38.117-17.06-38.117-38.117v-52.179c3.884-6.016,8.005-11.857,12.362-17.513   C99.959,39.353,173.617-0.041,256.125,0c16.246,0.01,32.142,1.535,47.553,4.44c3.08,0.577,5.202,3.379,5.017,6.511   c-1.02,17.07,6.408,33.491,19.501,44.04c2.349,1.885,3.029,5.141,1.607,7.798c-1.906,3.564-3.492,7.366-4.708,11.383   c-10.158,33.45,8.726,68.795,42.176,78.953c6.181,1.875,12.434,2.751,18.574,2.73c2.668-0.01,5.037,1.69,5.862,4.224   c6.181,19.007,21.232,34.789,41.825,41.042c21.696,6.593,44.195,0.948,60.101-12.949c3.482-3.039,8.922-1.453,10.096,3.018   C509.292,212.537,512.176,234.974,511.991,258.112z"/>
	<path id="XMLID_607_" style="fill:#FBDBB7;" d="M511.991,258.112c-0.247,30.988-5.944,60.616-16.184,87.988   c-3.4-2.957-6.758-5.841-10.034-8.571c-7.139-6.871-11.373-16.462-11.373-26.744v-51.942c0-11.682-4.553-22.674-12.826-30.957   c-8.283-8.272-19.275-12.826-30.957-12.826c-24.137,0-43.783,19.645-43.783,43.783v4.698c0,21.747-8.468,42.186-23.838,57.546   c-12.445,12.455-28.227,20.377-45.338,22.932c7.036-4.935,13.506-10.724,19.254-17.286c17.132-19.584,26.558-44.7,26.558-70.732   c0-59.256-48.213-107.469-107.469-107.469c-10.838,0-21.634,1.659-31.936,4.852v-1.844c0-15.947-6.212-30.957-17.492-42.248   c-11.301-11.291-26.311-17.503-42.258-17.503c-32.945,0-59.751,26.805-59.751,59.751v18.451c0,6.882-2.678,13.351-7.551,18.224   c-4.862,4.852-11.332,7.531-18.203,7.531c-14.206,0-25.755-11.559-25.755-25.755v-69.692C99.959,39.353,173.617-0.041,256.125,0   c16.246,0.01,32.142,1.535,47.553,4.44c3.08,0.577,5.202,3.379,5.017,6.511c-1.02,17.07,6.408,33.491,19.501,44.04   c2.349,1.885,3.029,5.141,1.607,7.798c-1.906,3.564-3.492,7.366-4.708,11.383c-10.158,33.45,8.726,68.795,42.176,78.953   c6.181,1.875,12.434,2.751,18.574,2.73c2.668-0.01,5.037,1.69,5.862,4.224c6.181,19.007,21.232,34.789,41.825,41.042   c21.696,6.593,44.195,0.948,60.101-12.949c3.482-3.039,8.922-1.453,10.096,3.018C509.292,212.537,512.176,234.974,511.991,258.112z   "/>
	<g id="XMLID_608_">
		<path id="XMLID_609_" style="fill:#915040;" d="M156.307,387.22c-0.013,0-0.025,0-0.037,0l-0.107,0    c-4.267-0.02-7.71-3.495-7.69-7.763c0.02-4.255,3.476-7.69,7.725-7.69c0.013,0,0.025,0,0.037,0l0.107,0    c4.267,0.02,7.71,3.495,7.69,7.763C164.013,383.785,160.557,387.22,156.307,387.22z"/>
	</g>
	<g id="XMLID_610_">
		<path id="XMLID_611_" style="fill:#915040;" d="M201.456,385.299c-0.013,0-0.025,0-0.037,0l-0.107-0.001    c-4.267-0.02-7.71-3.495-7.69-7.763c0.02-4.255,3.476-7.69,7.725-7.69c0.013,0,0.025,0,0.037,0l0.107,0    c4.267,0.02,7.71,3.495,7.69,7.763C209.161,381.864,205.705,385.299,201.456,385.299z"/>
	</g>
	<g id="XMLID_612_">
		<path id="XMLID_613_" style="fill:#915040;" d="M389.005,404.862c-0.013,0-0.024,0-0.037,0l-0.108-0.001    c-4.267-0.02-7.71-3.495-7.69-7.763c0.02-4.255,3.476-7.69,7.725-7.69c0.013,0,0.024,0,0.037,0l0.108,0    c4.267,0.02,7.71,3.495,7.69,7.763C396.71,401.426,393.254,404.862,389.005,404.862z"/>
	</g>
	<g id="XMLID_614_">
		<path id="XMLID_615_" style="fill:#915040;" d="M282.581,473.981c-0.013,0-0.025,0-0.037,0l-0.107,0    c-4.268-0.02-7.71-3.495-7.69-7.763c0.02-4.255,3.476-7.69,7.725-7.69c0.013,0,0.025,0,0.037,0l0.107,0.001    c4.268,0.02,7.71,3.495,7.69,7.763C290.287,470.546,286.831,473.981,282.581,473.981z"/>
	</g>
	<g id="XMLID_616_">
		<path id="XMLID_617_" style="fill:#915040;" d="M121.047,250.325h-0.107c-4.267,0-7.726-3.459-7.726-7.726    s3.459-7.726,7.726-7.726h0.107c4.267,0,7.726,3.459,7.726,7.726S125.314,250.325,121.047,250.325z"/>
	</g>
</g>















</svg>
