<?xml version="1.0" encoding="iso-8859-1"?>
<!-- Generator: Adobe Illustrator 19.0.0, SVG Export Plug-In . SVG Version: 6.00 Build 0)  -->
<svg xmlns="http://www.w3.org/2000/svg" xmlns:xlink="http://www.w3.org/1999/xlink" version="1.1" id="Layer_1" x="0px" y="0px" viewBox="0 0 512 512" style="enable-background:new 0 0 512 512;" xml:space="preserve" width="512" height="512">
<g id="XMLID_571_">
	<path id="XMLID_572_" style="fill:#FAB03C;" d="M237.959,84.238c0,27.413-22.221,49.634-49.634,49.634   c-5.954,0-11.662-1.051-16.947-2.967c-19.069-6.923-32.688-25.209-32.688-46.667c0-27.413,22.221-49.634,49.634-49.634   c17.183,0,32.327,8.736,41.238,22.005C234.869,64.5,237.959,74.008,237.959,84.238z"/>
	<path id="XMLID_573_" style="fill:#EF9722;" d="M237.959,84.238c0,27.413-22.221,49.634-49.634,49.634   c-5.954,0-11.662-1.051-16.947-2.967c-0.227-8.334-0.361-16.658-0.422-24.972c-0.041-5.233,1.968-10.178,5.666-13.907   c3.297-3.317,7.551-5.295,12.146-5.697c0.886-14.247,11.826-26.064,26.146-27.866l14.649-1.854   C234.869,64.5,237.959,74.008,237.959,84.238z"/>
	<circle id="XMLID_1154_" style="fill:#FAB03C;" cx="188.322" cy="84.237" r="19.607"/>
	<path id="XMLID_574_" style="fill:#F8E98E;" d="M207.929,84.238c0,10.827-8.777,19.604-19.604,19.604   c-6.099,0-11.548-2.782-15.144-7.139c-2.792-3.4-4.471-7.737-4.471-12.465c0-10.827,8.787-19.604,19.615-19.604   c3.338,0,6.49,0.834,9.241,2.318C203.737,70.248,207.929,76.748,207.929,84.238z"/>
	<path id="XMLID_575_" style="fill:#F6CB43;" d="M207.929,84.238c0,10.827-8.777,19.604-19.604,19.604   c-6.099,0-11.548-2.782-15.144-7.139c0.896-1.7,2.05-3.276,3.441-4.677c3.297-3.317,7.551-5.295,12.146-5.697   c0.464-7.5,3.719-14.33,8.798-19.378C203.737,70.248,207.929,76.748,207.929,84.238z"/>
	<path id="XMLID_576_" style="fill:#FBDBB7;" d="M336.764,90.543H228.172c3.07-14.268,7.747-27.042,13.619-37.56   c10.518-18.821,24.858-30.411,40.672-30.411c12.949,0,24.91,7.768,34.573,20.902C325.803,55.362,332.695,71.639,336.764,90.543z"/>
	<path id="XMLID_577_" style="fill:#F4BC8E;" d="M336.764,90.543H228.172c3.07-14.268,7.747-27.042,13.619-37.56l75.244-9.509   C325.803,55.362,332.695,71.639,336.764,90.543z"/>
	<path id="XMLID_578_" style="fill:#FFEDDC;" d="M347.715,74.348v34.305H199.008v-20.47c0-9.91,7.366-18.265,17.194-19.501   l86.782-10.971l22.602-2.864C337.33,53.363,347.715,62.511,347.715,74.348z"/>
	<path id="XMLID_579_" style="fill:#FBDBB7;" d="M347.715,74.348v34.305H285.08l17.904-50.942l22.602-2.864   C337.33,53.363,347.715,62.511,347.715,74.348z"/>
	<g id="XMLID_580_">
		<path id="XMLID_1147_" style="fill:#915040;" d="M366.795,8.455l-22.491-7.902c-5.075-1.783-10.634,0.886-12.417,5.96    l-33.876,96.424h45.913l28.832-82.066C374.539,15.797,371.87,10.238,366.795,8.455z"/>
		<polygon id="XMLID_1146_" style="fill:#F4BC8E;" points="358.945,60.183 307.697,75.369 319.89,40.662 371.138,25.477   "/>
	</g>
	<g id="XMLID_581_">
		<path id="XMLID_582_" style="fill:#F16E79;" d="M365.465,105.861c-1.02,141.609-25.322,264.674-52.251,331.028    c-13.485,33.223-27.63,52.23-39.847,52.23c-12.218,0-26.373-19.007-39.858-52.23c-26.929-66.354-51.231-189.419-52.251-331.028    c-0.041-5.12,4.1-9.313,9.23-9.313h165.746C361.365,96.549,365.506,100.741,365.465,105.861z"/>
		<path id="XMLID_583_" style="fill:#EB5163;" d="M313.214,436.889c-13.485,33.223-27.63,52.23-39.847,52.23    c-12.218,0-26.373-19.007-39.858-52.23H313.214z"/>
		<g id="XMLID_584_">
			<path id="XMLID_585_" style="fill:#EB5163;" d="M254.866,409.982c-3.889,0-7.236-2.928-7.671-6.884     c-7.786-70.905-12.903-167.09-14.04-263.89c-0.05-4.267,3.367-7.767,7.635-7.817c4.216-0.05,7.767,3.368,7.816,7.635     c1.133,96.321,6.217,191.957,13.95,262.386c0.466,4.241-2.596,8.057-6.837,8.523     C255.432,409.967,255.146,409.982,254.866,409.982z"/>
		</g>
		<g id="XMLID_586_">
			<path id="XMLID_587_" style="fill:#EB5163;" d="M291.86,409.982c-0.283,0-0.566-0.015-0.853-0.047     c-4.241-0.465-7.303-4.282-6.837-8.523c7.732-70.434,12.816-166.07,13.949-262.386c0.049-4.267,3.547-7.714,7.816-7.635     c4.268,0.05,7.685,3.55,7.635,7.817c-1.137,96.796-6.255,192.98-14.039,263.89C299.096,407.053,295.748,409.982,291.86,409.982z"/>
		</g>
		<g id="XMLID_588_">
			<g id="XMLID_589_">
				<path id="XMLID_1138_" style="fill:#77DFFF;" d="M340.605,469.626v0.133c0,5.664-2.292,10.795-6.004,14.507      c-3.712,3.726-8.843,6.019-14.507,6.019h-93.459c-11.327,0-20.511-9.198-20.511-20.525v-0.133      c0.03-5.605,2.322-10.692,6.004-14.374c3.712-3.712,8.843-6.004,14.507-6.004h93.459      C331.377,449.248,340.531,458.358,340.605,469.626z"/>
				<path id="XMLID_1137_" style="fill:#4FB4FF;" d="M340.605,469.626v0.133c0,5.664-2.292,10.795-6.004,14.507      c-3.712,3.726-8.843,6.019-14.507,6.019h-93.459c-11.327,0-20.511-9.198-20.511-20.525v-0.133H340.605z"/>
			</g>
			<path id="XMLID_1135_" style="fill:#B7F1FF;" d="M361.946,512H184.778c-3.599,0-6.516-2.917-6.516-6.516v0     c0-12.634,10.242-22.876,22.876-22.876h144.448c12.634,0,22.876,10.242,22.876,22.876v0C368.462,509.083,365.544,512,361.946,512     z"/>
		</g>
	</g>
</g>















</svg>
