<?xml version="1.0" encoding="iso-8859-1"?>
<!-- Generator: Adobe Illustrator 19.0.0, SVG Export Plug-In . SVG Version: 6.00 Build 0)  -->
<svg xmlns="http://www.w3.org/2000/svg" xmlns:xlink="http://www.w3.org/1999/xlink" version="1.1" id="Layer_1" x="0px" y="0px" viewBox="0 0 512 512" style="enable-background:new 0 0 512 512;" xml:space="preserve" width="512" height="512">
<g id="XMLID_456_">
	<path id="XMLID_457_" style="fill:#4FB4FF;" d="M199.535,99.744h38.262L194.328,3.548c-1.371-3.034-4.943-4.383-7.977-3.012   l-20.785,9.392c-3.034,1.371-4.383,4.943-3.012,7.977L199.535,99.744z"/>
	<path id="XMLID_458_" style="fill:#BE7560;" d="M342.328,99.824H169.67c0.814-4.038,2.194-7.86,4.049-11.394   c0.907-1.72,1.916-3.379,3.039-4.955c6.511-9.169,16.524-15.669,28.093-17.554c1.731-24.642,22.252-44.102,47.337-44.102   c18.997,0,35.376,11.167,42.959,27.289c20.676,1.617,37.911,15.494,44.391,34.367c0.567,1.617,1.051,3.266,1.442,4.955   C341.834,92.088,342.308,95.9,342.328,99.824z"/>
	<path id="XMLID_459_" style="fill:#A86552;" d="M342.328,99.824H169.67c0.814-4.038,2.194-7.86,4.049-11.394   c0.907-1.72,1.916-3.379,3.039-4.955h162.779c0.567,1.617,1.051,3.266,1.442,4.955C341.834,92.088,342.308,95.9,342.328,99.824z"/>
	<g id="XMLID_460_">
		<rect id="XMLID_461_" x="242.99" y="386.67" style="fill:#B7F1FF;" width="26.018" height="77.893"/>
		<path id="XMLID_462_" style="fill:#77DFFF;" d="M290.849,471.513v0.133c0,5.64-2.283,10.75-5.979,14.447    c-3.696,3.711-8.806,5.994-14.447,5.994h-28.849c-11.28,0-20.426-9.16-20.426-20.44v-0.133c0.029-5.581,2.312-10.647,5.979-14.314    c3.696-3.696,8.806-5.979,14.447-5.979h28.849C281.66,451.22,290.776,460.292,290.849,471.513z"/>
		<path id="XMLID_463_" style="fill:#4FB4FF;" d="M290.849,471.513v0.133c0,5.64-2.283,10.75-5.979,14.447    c-3.696,3.711-8.806,5.994-14.447,5.994h-28.849c-11.28,0-20.426-9.16-20.426-20.44v-0.133H290.849z"/>
		<path id="XMLID_1140_" style="fill:#B7F1FF;" d="M307.393,512H204.606c-3.343,0-6.054-2.71-6.054-6.053v0    c0-11.738,9.515-21.253,21.253-21.253h72.389c11.738,0,21.253,9.515,21.253,21.253v0C313.446,509.29,310.736,512,307.393,512z"/>
	</g>
	<path id="XMLID_464_" style="fill:#FFEDDC;" d="M353.877,311.733c0,54.517-44.576,98.63-99.268,97.867   c-51.787-0.721-95.817-44.792-96.476-96.59c-0.124-9.251,1.051-18.224,3.338-26.743c4.306-16.03,7.222-32.317,8.726-48.717   c1.792-19.326,1.628-38.797-0.495-58.123c-0.453-4.131-0.989-8.252-1.628-12.362c-0.989-6.459-2.205-12.898-3.637-19.306   c-2.926-13.052-4.893-26.898-5.779-41.29c-0.361-5.769,4.234-10.631,10.013-10.631h174.657c5.779,0,10.374,4.862,10.013,10.631   c-0.886,14.392-2.854,28.248-5.779,41.3c-1.432,6.397-2.648,12.836-3.626,19.295c-0.628,4.11-1.164,8.231-1.607,12.362   c-2.091,19.326-2.225,38.797-0.433,58.123c1.525,16.483,4.44,32.883,8.715,49.037C352.743,294.611,353.877,303.038,353.877,311.733   z"/>
	<path id="XMLID_465_" style="fill:#FBDBB7;" d="M353.877,311.733c0,54.517-44.576,98.63-99.268,97.867   c-51.787-0.721-95.817-44.792-96.476-96.59c-0.124-9.251,1.051-18.224,3.338-26.743c4.306-16.03,7.222-32.317,8.726-48.717   c1.792-19.326,1.628-38.797-0.495-58.123c-0.453-4.131-0.989-8.252-1.628-12.362h175.862c-0.628,4.11-1.164,8.231-1.607,12.362   c-2.091,19.326-2.225,38.797-0.433,58.123c1.525,16.483,4.44,32.883,8.715,49.037C352.743,294.611,353.877,303.038,353.877,311.733   z"/>
	<path id="XMLID_466_" style="fill:#FBDBB7;" d="M353.877,311.733c0,54.517-44.576,98.63-99.268,97.867   c-51.787-0.721-95.817-44.792-96.476-96.59c-0.124-9.251,1.051-18.224,3.338-26.743c4.306-16.03,7.222-32.317,8.726-48.717   c0.381-4.11,0.67-8.231,0.865-12.362c0.556-10.951,0.474-21.932-0.237-32.883c-0.278-4.296-0.649-8.592-1.123-12.877h172.627   c-0.464,4.286-0.834,8.581-1.092,12.877c-0.701,10.951-0.773,21.933-0.216,32.883c0.206,4.121,0.494,8.252,0.876,12.362   c1.525,16.483,4.44,32.883,8.715,49.037C352.743,294.611,353.877,303.038,353.877,311.733z"/>
	<path id="XMLID_467_" style="fill:#F4BC8E;" d="M342.328,179.427c-0.464,4.286-0.834,8.581-1.092,12.877H170.824   c-0.278-4.296-0.649-8.592-1.123-12.877H342.328z"/>
	<path id="XMLID_468_" style="fill:#F4BC8E;" d="M353.877,311.733c0,54.517-44.576,98.63-99.268,97.867   c-51.787-0.721-95.817-44.792-96.476-96.59c-0.124-9.251,1.051-18.224,3.338-26.743c4.306-16.03,7.222-32.317,8.726-48.717   c0.381-4.11,0.67-8.231,0.865-12.362H341.02c0.206,4.121,0.494,8.252,0.876,12.362c1.525,16.483,4.44,32.883,8.715,49.037   C352.743,294.611,353.877,303.038,353.877,311.733z"/>
	<path id="XMLID_469_" style="fill:#FAB03C;" d="M353.879,311.733c0,54.52-44.582,98.631-99.272,97.87   c-51.785-0.721-95.816-44.792-96.477-96.587c-0.12-9.257,1.052-18.234,3.336-26.749c4.308-16.029,7.223-32.319,8.726-48.719   h171.705c1.523,16.49,4.438,32.89,8.716,49.04C352.747,294.611,353.879,303.036,353.879,311.733z"/>
</g>















</svg>
