<?xml version="1.0" encoding="iso-8859-1"?>
<!-- Generator: Adobe Illustrator 19.0.0, SVG Export Plug-In . SVG Version: 6.00 Build 0)  -->
<svg xmlns="http://www.w3.org/2000/svg" xmlns:xlink="http://www.w3.org/1999/xlink" version="1.1" id="Layer_1" x="0px" y="0px" viewBox="0 0 512 512" style="enable-background:new 0 0 512 512;" xml:space="preserve" width="512" height="512">
<g id="XMLID_503_">
	<g id="XMLID_504_">
		<path id="XMLID_1153_" style="fill:#DAD0CD;" d="M56.654,211.532h48.976v29.895H56.654c-14.755,0-26.759,12.004-26.759,26.759    v26.482c0,14.755,12.004,26.759,26.759,26.759h48.976v29.895H56.654C25.415,351.322,0,325.907,0,294.668l0-26.482    C0,236.947,25.415,211.532,56.654,211.532z"/>
		<path id="XMLID_1152_" style="fill:#F1EDED;" d="M103.935,194.454v168.651c0,11.363,2.998,22.015,8.241,31.225    c10.868,19.12,31.421,32.008,54.981,32.008h246.45c23.56,0,44.112-12.888,54.981-32.008c5.244-9.21,8.241-19.862,8.241-31.225    V194.454c0-6.604-5.357-11.961-11.96-11.961H115.895C109.292,182.493,103.935,187.85,103.935,194.454z"/>
		<path id="XMLID_1151_" style="fill:#DAD0CD;" d="M112.176,394.329c10.868,19.12,31.421,32.008,54.981,32.008h246.45    c23.56,0,44.112-12.888,54.981-32.008H112.176z"/>
		<g id="XMLID_505_">
			<path id="XMLID_1150_" style="fill:#A86552;" d="M319.191,394.329c1.669,2.05,3.461,4.059,5.398,5.985     c21.891,21.891,52.467,26.816,68.291,10.992c4.605-4.605,7.448-10.456,8.623-16.978c2.905-15.906-4.079-35.788-19.604-51.324     c-21.902-21.891-52.477-26.816-68.301-10.992C299.175,346.436,301.977,373.139,319.191,394.329z"/>
			<path id="XMLID_1149_" style="fill:#915040;" d="M319.191,394.329c1.669,2.05,3.461,4.059,5.398,5.985     c21.891,21.891,52.467,26.816,68.291,10.992c4.605-4.605,7.448-10.456,8.623-16.978H319.191z"/>
			<g id="XMLID_506_">
				<path id="XMLID_507_" style="fill:#915040;" d="M397.619,405.118c-1.288,2.246-2.874,4.327-4.739,6.191      s-3.935,3.441-6.181,4.739l-77.84-77.84c1.288-2.246,2.864-4.316,4.739-6.191c1.875-1.875,3.946-3.451,6.191-4.739      L397.619,405.118z"/>
			</g>
		</g>
		<g id="XMLID_508_">
			<path id="XMLID_1145_" style="fill:#00DF97;" d="M374.409,394.329c0.618,4.924,1.566,9.869,2.843,14.814     c0.917,3.564,3.729,6.366,7.294,7.283c33.759,8.664,67.58,2.339,90.203-20.284c0.597-0.597,1.185-1.205,1.751-1.813     c21.18-22.592,26.97-55.506,18.533-88.389c-0.917-3.565-3.729-6.377-7.294-7.294c-33.769-8.674-67.59-2.339-90.213,20.284     C378.221,338.226,370.772,365.701,374.409,394.329z"/>
			<path id="XMLID_1144_" style="fill:#00B579;" d="M374.409,394.329c0.618,4.924,1.566,9.869,2.843,14.814     c0.917,3.564,3.729,6.366,7.294,7.283c33.759,8.664,67.58,2.339,90.203-20.284c0.597-0.597,1.185-1.205,1.751-1.813H374.409z"/>
			<path id="XMLID_509_" style="fill:#009765;" d="M473.432,356.421c-0.467-4.24-4.28-7.295-8.525-6.835     c-3.391,0.373-6.768,0.444-10.115,0.224l10.541-10.541c3.018-3.018,3.018-7.912,0-10.93c-3.018-3.018-7.912-3.018-10.93,0     l-10.542,10.542c-0.22-3.348-0.149-6.725,0.224-10.117c0.467-4.241-2.594-8.058-6.835-8.525     c-4.253-0.461-8.058,2.595-8.525,6.835c-0.94,8.552-0.37,17.034,1.657,25.287l-8.288,8.288c-0.22-3.347-0.149-6.725,0.224-10.118     c0.467-4.241-2.594-8.058-6.835-8.525c-4.259-0.456-8.058,2.596-8.525,6.835c-0.94,8.552-0.37,17.034,1.657,25.287     l-32.083,32.083c0.227,0.979,0.464,1.957,0.721,2.936c0.917,3.564,3.729,6.367,7.294,7.283c0.968,0.247,1.947,0.484,2.915,0.711     l32.076-32.076c5.647,1.387,11.401,2.094,17.212,2.094c2.683,0,5.378-0.149,8.079-0.446c4.241-0.467,7.302-4.284,6.835-8.525     c-0.467-4.241-4.276-7.297-8.525-6.835c-3.391,0.372-6.768,0.444-10.114,0.224l8.28-8.28c5.649,1.388,11.403,2.095,17.216,2.095     c2.682,0,5.376-0.149,8.076-0.446C470.838,364.48,473.898,360.663,473.432,356.421z"/>
		</g>
		<path id="XMLID_1141_" style="fill:#F1EDED;" d="M92.681,457.075h395.402c13.209,0,23.916-10.708,23.916-23.916v-19.29    c0-3.963-3.212-7.175-7.175-7.175H75.94c-3.963,0-7.175,3.212-7.175,7.175v19.29C68.765,446.368,79.473,457.075,92.681,457.075z"/>
	</g>
	<g id="XMLID_510_">
		<g id="XMLID_511_">
			<path id="XMLID_512_" style="fill:#77DFFF;" d="M231.134,155.238c-1.977,0-3.955-0.755-5.464-2.263     c-8.99-8.991-8.99-23.621,0-32.612l41.492-41.493c1.438-1.437,2.228-3.346,2.228-5.378c0-2.032-0.791-3.942-2.228-5.378     c-3.017-3.018-3.017-7.909,0-10.928c3.018-3.016,7.909-3.016,10.928,0c8.99,8.991,8.99,23.621,0,32.612l-41.492,41.493     c-2.966,2.966-2.966,7.791,0,10.757c3.017,3.018,3.017,7.909,0,10.928C235.089,154.484,233.111,155.238,231.134,155.238z"/>
		</g>
		<g id="XMLID_513_">
			<path id="XMLID_514_" style="fill:#77DFFF;" d="M283.269,155.238c-1.977,0-3.954-0.754-5.463-2.263     c-4.356-4.355-6.756-10.146-6.756-16.306s2.399-11.951,6.756-16.306l41.491-41.493c1.438-1.437,2.228-3.346,2.228-5.378     c0-2.032-0.791-3.942-2.228-5.378c-3.017-3.018-3.017-7.909,0-10.928c3.018-3.016,7.909-3.016,10.928,0     c8.99,8.991,8.99,23.621,0,32.612l-41.492,41.493c-1.438,1.437-2.229,3.347-2.229,5.378s0.792,3.942,2.228,5.378     c3.018,3.017,3.018,7.909,0.001,10.927C287.224,154.484,285.245,155.238,283.269,155.238z"/>
		</g>
		<g id="XMLID_515_">
			<path id="XMLID_516_" style="fill:#77DFFF;" d="M335.402,155.238c-1.977,0-3.955-0.755-5.464-2.263     c-8.99-8.991-8.99-23.621,0-32.612l41.492-41.493c2.966-2.966,2.966-7.791,0-10.757c-3.017-3.018-3.017-7.909,0-10.928     c3.018-3.016,7.909-3.016,10.928,0c8.99,8.991,8.99,23.621,0,32.612l-41.492,41.493c-1.438,1.437-2.228,3.346-2.228,5.378     s0.791,3.942,2.228,5.378c3.017,3.018,3.017,7.909,0,10.928C339.357,154.484,337.379,155.238,335.402,155.238z"/>
		</g>
	</g>
</g>















</svg>
